<?xml version="1.0" encoding="UTF-8"?>
<svg width="96px" height="96px" viewBox="0 0 96 96" version="1.1" xmlns="http://www.w3.org/2000/svg" xmlns:xlink="http://www.w3.org/1999/xlink">
    <title>Picto - A</title>
    <g id="Page-1" stroke="none" stroke-width="1" fill="none" fill-rule="evenodd">
        <g id="Web-Copy" transform="translate(-895.000000, -279.000000)" fill-rule="nonzero">
            <g id="Picto---A" transform="translate(895.080408, 279.119034)">
                <path d="M92.6067756,0.00903678281 C94.316768,-0.134272239 95.9028831,1.4494139 95.7571451,3.15940629 C95.5458251,5.59565966 92.5144749,60.9542345 74.7975935,78.6711159 C57.8191178,95.6495915 37.811721,91.6660865 24.7463104,82.2732732 C24.5884276,82.1591118 24.411113,82.0230896 24.2167957,81.8676358 L12.4387373,93.6286914 C9.59198859,96.4730112 4.97938126,96.4730112 2.13506153,93.6286914 C-0.711687176,90.7819427 -0.711687176,86.1693354 2.13506153,83.3250157 L13.8985461,71.5493862 C13.7406633,71.3526399 13.6046412,71.1753254 13.4904798,71.0174426 C4.1000954,57.9544609 0.114161424,37.9470641 17.092637,20.9661595 C34.8095185,3.24927805 90.1680933,0.215498933 92.6067756,0.00903678281 Z" id="Path-Copy-11" fill="#1E8F4E"></path>
                <path id="picto---A__text" d="M62.1702833,67.8120398 C64.722627,67.8120398 66.5498731,66.1008094 66.5498731,63.6934851 C66.5498731,62.823368 66.4048536,62.0402625 65.9987989,60.9091101 L54.513252,29.7589148 C53.2660841,26.3364539 51.2358106,24.8282508 47.8133497,24.8282508 C44.5069044,24.8282508 42.447627,26.3944617 41.229463,29.7879187 L29.8019239,60.9091101 C29.4248731,61.9822547 29.2218458,62.9683875 29.2218458,63.6934851 C29.2218458,66.216825 30.9330763,67.8120398 33.6594435,67.8120398 C35.979756,67.8120398 37.2849317,66.6518836 38.0970411,63.8675086 L40.301338,57.3416297 L55.4123731,57.3416297 L57.61667,63.9545203 C58.3997755,66.6808875 59.7049513,67.8120398 62.1702833,67.8120398 Z M53.3820997,50.5547156 L42.2155958,50.5547156 L47.6393263,33.413407 L47.8423536,33.413407 L53.3820997,50.5547156 Z" id="A" fill="#FFFFFF"></path>
            </g>
        </g>
    </g>
</svg>