<?xml version="1.0" encoding="UTF-8"?>
<svg width="96px" height="96px" viewBox="0 0 96 96" version="1.1" xmlns="http://www.w3.org/2000/svg" xmlns:xlink="http://www.w3.org/1999/xlink">
    <title>Picto - B</title>
    <g id="Page-1" stroke="none" stroke-width="1" fill="none" fill-rule="evenodd">
        <g id="Web-Copy" transform="translate(-895.000000, -279.000000)" fill-rule="nonzero">
            <g id="Picto---B" transform="translate(895.080408, 279.119034)">
                <path d="M92.6067756,0.00903678281 C94.316768,-0.134272239 95.9028831,1.4494139 95.7571451,3.15940629 C95.5458251,5.59565966 92.5144749,60.9542345 74.7975935,78.6711159 C57.8191178,95.6495915 37.811721,91.6660865 24.7463104,82.2732732 C24.5884276,82.1591118 24.411113,82.0230896 24.2167957,81.8676358 L12.4387373,93.6286914 C9.59198859,96.4730112 4.97938126,96.4730112 2.13506153,93.6286914 C-0.711687176,90.7819427 -0.711687176,86.1693354 2.13506153,83.3250157 L13.8985461,71.5493862 C13.7406633,71.3526399 13.6046412,71.1753254 13.4904798,71.0174426 C4.1000954,57.9544609 0.114161424,37.9470641 17.092637,20.9661595 C34.8095185,3.24927805 90.1705223,0.215498933 92.6067756,0.00903678281 Z" id="Path-Copy-10" fill="#2ECC71"></path>
                <path id="picto---B__text" d="M52.0772278,67.2609656 C61.0104309,67.2609656 66.550177,62.6493445 66.550177,55.2823523 C66.550177,49.7426062 62.3736145,45.5950476 56.6888489,45.1599891 L56.6888489,44.9279578 C61.1264465,44.260868 64.5489075,40.4323523 64.5489075,35.8497351 C64.5489075,29.4398719 59.6182434,25.4083289 51.7581848,25.4083289 L37.9233215,25.4083289 C35.1679504,25.4083289 33.5437317,27.0905555 33.5437317,29.9619422 L33.5437317,62.6783484 C33.5437317,65.5787391 35.1679504,67.2609656 37.9233215,67.2609656 L52.0772278,67.2609656 Z M48.596759,42.8106726 L42.3029114,42.8106726 L42.3029114,31.9342078 L49.4958801,31.9342078 C53.5854309,31.9342078 55.9347473,33.8484656 55.9347473,37.2129187 C55.9347473,40.7513953 53.2663879,42.8106726 48.596759,42.8106726 Z M49.843927,60.7350867 L42.3029114,60.7350867 L42.3029114,48.58245 L49.6408996,48.58245 C54.803595,48.58245 57.6169739,50.6707312 57.6169739,54.5862586 C57.6169739,58.5887976 54.8906067,60.7350867 49.843927,60.7350867 Z" id="B" fill="#FFFFFF"></path>
            </g>
        </g>
    </g>
</svg>