<?xml version="1.0" encoding="UTF-8"?>
<svg width="96px" height="96px" viewBox="0 0 96 96" version="1.1" xmlns="http://www.w3.org/2000/svg" xmlns:xlink="http://www.w3.org/1999/xlink">
    <title>Picto - C</title>
    <g id="Page-1" stroke="none" stroke-width="1" fill="none" fill-rule="evenodd">
        <g id="Web-Copy" transform="translate(-895.000000, -279.000000)" fill-rule="nonzero">
            <g id="Picto---C" transform="translate(895.081623, 279.119034)">
                <path d="M92.6043467,0.00903678281 C94.3143391,-0.134272239 95.9004542,1.4494139 95.7547162,3.15940629 C95.5433961,5.59565966 92.5120459,60.9542345 74.7951645,78.6711159 C57.8142599,95.6495915 37.8092921,91.6660865 24.7438814,82.2732732 C24.5859986,82.1591118 24.4086841,82.0230896 24.2143667,81.8676358 L12.4387373,93.6286914 C9.59198859,96.4730112 4.97938126,96.4730112 2.13506153,93.6286914 C-0.711687176,90.7819427 -0.711687176,86.1693354 2.13506153,83.3250157 L13.8985461,71.5493862 C13.7406633,71.3526399 13.6046412,71.1753254 13.4904798,71.0174426 C4.1000954,57.9544609 0.114161424,37.9470641 17.092637,20.9661595 C34.8070895,3.24927805 90.1656643,0.215498933 92.6043467,0.00903678281 Z" id="Path-Copy-9" fill="#F5C100"></path>
                <path id="picto---C__text" d="M49.1413823,67.9570594 C57.0594487,67.9570594 63.2952885,64.3895789 65.9056401,58.5887976 C66.3406987,57.5736609 66.5727299,56.6455359 66.5727299,55.6594031 C66.5727299,53.3390906 64.9485112,51.7728797 62.4831791,51.7728797 C60.6269291,51.7728797 59.5247807,52.5559851 58.6256596,54.5282508 C56.7404057,58.7338172 53.4339604,60.7350867 49.0253666,60.7350867 C42.3254643,60.7350867 38.1198979,55.2243445 38.1198979,46.2911414 C38.1198979,37.4739539 42.3834721,31.9342078 48.9963627,31.9342078 C53.1729252,31.9342078 56.5953862,34.0804969 58.509644,38.3440711 C59.4667729,40.3743445 60.7139409,41.2444617 62.6862065,41.2444617 C65.006519,41.2444617 66.543726,39.7652625 66.543726,37.4739539 C66.543726,36.4298133 66.253687,35.2986609 65.6736088,34.1965125 C62.8022221,28.1637 56.7404057,24.6832312 48.909351,24.6832312 C36.8727299,24.6832312 29.1866948,32.8333289 29.1866948,46.3201453 C29.1866948,59.8359656 36.7277104,67.9570594 49.1413823,67.9570594 Z" id="C" fill="#FFFFFF"></path>
            </g>
        </g>
    </g>
</svg>