<?xml version="1.0" encoding="UTF-8"?>
<svg width="96px" height="96px" viewBox="0 0 96 96" version="1.1" xmlns="http://www.w3.org/2000/svg" xmlns:xlink="http://www.w3.org/1999/xlink">
    <title>Picto - D</title>
    <g id="Page-1" stroke="none" stroke-width="1" fill="none" fill-rule="evenodd">
        <g id="Web-Copy" transform="translate(-895.000000, -279.000000)" fill-rule="nonzero">
            <g id="Picto---D" transform="translate(895.081623, 279.119034)">
                <path d="M92.6043467,0.00903678281 C94.3143391,-0.134272239 95.9004542,1.4494139 95.7547162,3.15940629 C95.5433961,5.59565966 92.5120459,60.9542345 74.7951645,78.6711159 C57.8166889,95.6495915 37.8092921,91.6660865 24.7438814,82.2732732 C24.5859986,82.1591118 24.4086841,82.0230896 24.2143667,81.8676358 L12.4387373,93.6286914 C9.59198859,96.4730112 4.97938126,96.4730112 2.13506153,93.6286914 C-0.711687176,90.7819427 -0.711687176,86.1693354 2.13506153,83.3250157 L13.8985461,71.5493862 C13.7406633,71.3526399 13.6046412,71.1753254 13.4904798,71.0174426 C4.1000954,57.9544609 0.114161424,37.9470641 17.092637,20.9661595 C34.8070895,3.24927805 90.1656643,0.215498933 92.6043467,0.00903678281 Z" id="Path-Copy-8" fill="#EF7E1A"></path>
                <path id="picto---D__text" d="M48.7885159,67.2609656 C61.3472073,67.2609656 68.7432034,59.4589148 68.7432034,46.1751258 C68.7432034,32.8913367 61.3472073,25.4083289 48.7885159,25.4083289 L37.1869534,25.4083289 C34.4315823,25.4083289 32.8073635,27.0905555 32.8073635,29.9619422 L32.8073635,62.6783484 C32.8073635,65.5787391 34.4315823,67.2609656 37.1869534,67.2609656 L48.7885159,67.2609656 Z M47.7443752,60.0099891 L41.5665432,60.0099891 L41.5665432,32.6303016 L47.7443752,32.6303016 C55.4594143,32.6303016 59.8100002,37.44495 59.8100002,46.2041297 C59.8100002,55.2533484 55.5754299,60.0099891 47.7443752,60.0099891 Z" id="D" fill="#FFFFFF"></path>
            </g>
        </g>
    </g>
</svg>