<?xml version="1.0" encoding="UTF-8"?>
<svg width="96px" height="96px" viewBox="0 0 96 96" version="1.1" xmlns="http://www.w3.org/2000/svg" xmlns:xlink="http://www.w3.org/1999/xlink">
    <title>Picto - E</title>
    <g id="Page-1" stroke="none" stroke-width="1" fill="none" fill-rule="evenodd">
        <g id="Web-Copy" transform="translate(-895.000000, -279.000000)" fill-rule="nonzero">
            <g id="Picto---E" transform="translate(895.081623, 279.119034)">
                <path d="M92.6043467,0.00903678281 C94.3143391,-0.134272239 95.9004542,1.4494139 95.7547162,3.15940629 C95.5433961,5.59565966 92.5120459,60.9542345 74.7951645,78.6711159 C57.8142599,95.6495915 37.8092921,91.6660865 24.7438814,82.2732732 C24.5859986,82.1591118 24.4086841,82.0230896 24.2143667,81.8676358 L12.4387373,93.6286914 C9.59198859,96.4730112 4.97938126,96.4730112 2.13506153,93.6286914 C-0.711687176,90.7819427 -0.711687176,86.1693354 2.13506153,83.3250157 L13.8985461,71.5493862 C13.7406633,71.3526399 13.6046412,71.1753254 13.4904798,71.0174426 C4.1000954,57.9544609 0.114161424,37.9470641 17.092637,20.9661595 C34.8046605,3.24927805 90.1656643,0.215498933 92.6043467,0.00903678281 Z" id="Path-Copy-7" fill="#D93726"></path>
                <path id="picto---E__text" d="M59.9202059,67.2609656 C62.3275301,67.2609656 63.893741,65.897782 63.893741,63.6354773 C63.893741,61.3731726 62.2985262,60.0099891 59.9202059,60.0099891 L44.403116,60.0099891 L44.403116,49.4525672 L59.1661043,49.4525672 C61.3704012,49.4525672 62.8205965,48.1763953 62.8205965,46.0881141 C62.8205965,43.9998328 61.3413973,42.7236609 59.1661043,42.7236609 L44.403116,42.7236609 L44.403116,32.6593055 L59.9202059,32.6593055 C62.2985262,32.6593055 63.893741,31.2961219 63.893741,29.0338172 C63.893741,26.7715125 62.3275301,25.4083289 59.9202059,25.4083289 L40.0235262,25.4083289 C37.2681551,25.4083289 35.6439363,27.0905555 35.6439363,29.9619422 L35.6439363,62.6783484 C35.6439363,65.5787391 37.2681551,67.2609656 40.0235262,67.2609656 L59.9202059,67.2609656 Z" id="E" fill="#FFFFFF"></path>
            </g>
        </g>
    </g>
</svg>